<svg width="132" height="23" viewBox="0 0 132 23" fill="none" xmlns="http://www.w3.org/2000/svg">
<g clip-path="url(#clip0_1_39)">
<path d="M21.0966 8.9125C21.039 8.74268 20.9329 8.59347 20.7914 8.48328C20.6499 8.3731 20.4792 8.30675 20.3005 8.29245L15.0713 7.87694L12.8085 2.86792C12.7364 2.70659 12.6192 2.56957 12.471 2.47338C12.3228 2.3772 12.1499 2.32596 11.9732 2.32587C11.7965 2.32577 11.6236 2.37681 11.4752 2.47283C11.3269 2.56886 11.2095 2.70575 11.1373 2.86701L8.87449 7.87694L3.64533 8.29245C3.46964 8.30636 3.30168 8.3706 3.16154 8.47748C3.02141 8.58436 2.91503 8.72934 2.85513 8.89509C2.79524 9.06085 2.78436 9.24035 2.82381 9.41212C2.86326 9.58389 2.95136 9.74065 3.07757 9.86367L6.94187 13.6307L5.57519 19.5487C5.5337 19.7279 5.547 19.9153 5.61337 20.0868C5.67974 20.2583 5.79612 20.4059 5.94741 20.5104C6.0987 20.6149 6.2779 20.6716 6.46178 20.673C6.64565 20.6744 6.8257 20.6205 6.97856 20.5183L11.9729 17.1887L16.9672 20.5183C17.1235 20.622 17.3077 20.6754 17.4952 20.6713C17.6827 20.6672 17.8645 20.6057 18.016 20.4953C18.1675 20.3848 18.2816 20.2305 18.3429 20.0533C18.4041 19.876 18.4097 19.6843 18.3587 19.5038L16.6811 13.6335L20.8416 9.88935C21.1141 9.64353 21.214 9.26013 21.0966 8.9125Z" fill="#F3CD03"/>
<path d="M48.1115 8.9125C48.0539 8.74268 47.9478 8.59347 47.8063 8.48328C47.6648 8.3731 47.4941 8.30675 47.3154 8.29245L42.0862 7.87694L39.8234 2.86792C39.7513 2.70659 39.6341 2.56957 39.4859 2.47338C39.3377 2.3772 39.1648 2.32596 38.9881 2.32587C38.8114 2.32577 38.6385 2.37681 38.4901 2.47283C38.3418 2.56886 38.2244 2.70575 38.1522 2.86701L35.8894 7.87694L30.6602 8.29245C30.4845 8.30636 30.3166 8.3706 30.1764 8.47748C30.0363 8.58436 29.9299 8.72934 29.87 8.89509C29.8101 9.06085 29.7993 9.24035 29.8387 9.41212C29.8781 9.58389 29.9662 9.74065 30.0925 9.86367L33.9568 13.6307L32.5901 19.5487C32.5486 19.7279 32.5619 19.9153 32.6283 20.0868C32.6946 20.2583 32.811 20.4059 32.9623 20.5104C33.1136 20.6149 33.2928 20.6716 33.4767 20.673C33.6605 20.6744 33.8406 20.6205 33.9935 20.5183L38.9878 17.1887L43.9821 20.5183C44.1384 20.622 44.3226 20.6754 44.5101 20.6713C44.6976 20.6672 44.8794 20.6057 45.0309 20.4953C45.1824 20.3848 45.2965 20.2305 45.3578 20.0533C45.419 19.876 45.4246 19.6843 45.3736 19.5038L43.696 13.6335L47.8565 9.88935C48.129 9.64353 48.2289 9.26013 48.1115 8.9125Z" fill="#F3CD03"/>
<path d="M75.1228 8.9125C75.0651 8.74268 74.959 8.59347 74.8175 8.48328C74.676 8.3731 74.5054 8.30675 74.3266 8.29245L69.0974 7.87694L66.8346 2.86792C66.7626 2.70659 66.6453 2.56957 66.4971 2.47338C66.3489 2.3772 66.176 2.32596 65.9993 2.32587C65.8226 2.32577 65.6497 2.37681 65.5014 2.47283C65.353 2.56886 65.2357 2.70575 65.1634 2.86701L62.9006 7.87694L57.6715 8.29245C57.4958 8.30636 57.3278 8.3706 57.1877 8.47748C57.0475 8.58436 56.9411 8.72934 56.8813 8.89509C56.8214 9.06085 56.8105 9.24035 56.8499 9.41212C56.8894 9.58389 56.9775 9.74065 57.1037 9.86367L60.968 13.6307L59.6013 19.5487C59.5598 19.7279 59.5731 19.9153 59.6395 20.0868C59.7059 20.2583 59.8222 20.4059 59.9735 20.5104C60.1248 20.6149 60.304 20.6716 60.4879 20.673C60.6718 20.6744 60.8518 20.6205 61.0047 20.5183L65.999 17.1887L70.9934 20.5183C71.1496 20.622 71.3339 20.6754 71.5214 20.6713C71.7088 20.6672 71.8906 20.6057 72.0421 20.4953C72.1937 20.3848 72.3077 20.2305 72.369 20.0533C72.4303 19.876 72.4358 19.6843 72.3848 19.5038L70.7072 13.6335L74.8678 9.88935C75.1402 9.64353 75.2402 9.26013 75.1228 8.9125Z" fill="#F3CD03"/>
<path d="M102.136 8.9125C102.079 8.74268 101.973 8.59347 101.831 8.48328C101.69 8.3731 101.519 8.30675 101.34 8.29245L96.1111 7.87694L93.8483 2.86792C93.7762 2.70659 93.659 2.56957 93.5108 2.47338C93.3626 2.3772 93.1897 2.32596 93.013 2.32587C92.8363 2.32577 92.6634 2.37681 92.515 2.47283C92.3667 2.56886 92.2493 2.70575 92.1771 2.86701L89.9143 7.87694L84.6851 8.29245C84.5094 8.30636 84.3415 8.3706 84.2013 8.47748C84.0612 8.58436 83.9548 8.72934 83.8949 8.89509C83.835 9.06085 83.8242 9.24035 83.8636 9.41212C83.9031 9.58389 83.9912 9.74065 84.1174 9.86367L87.9817 13.6307L86.615 19.5487C86.5735 19.7279 86.5868 19.9153 86.6532 20.0868C86.7195 20.2583 86.8359 20.4059 86.9872 20.5104C87.1385 20.6149 87.3177 20.6716 87.5016 20.673C87.6854 20.6744 87.8655 20.6205 88.0184 20.5183L93.0127 17.1887L98.007 20.5183C98.1633 20.622 98.3475 20.6754 98.535 20.6713C98.7225 20.6672 98.9043 20.6057 99.0558 20.4953C99.2073 20.3848 99.3214 20.2305 99.3827 20.0533C99.4439 19.876 99.4495 19.6843 99.3985 19.5038L97.7209 13.6335L101.881 9.88935C102.154 9.64353 102.254 9.26013 102.136 8.9125Z" fill="#F3CD03"/>
<path d="M114.997 13.6308L113.631 19.5488C113.588 19.728 113.601 19.9158 113.667 20.0877C113.733 20.2596 113.85 20.4075 114.001 20.5122C114.153 20.6169 114.332 20.6735 114.516 20.6746C114.7 20.6757 114.881 20.6212 115.033 20.5183L120.028 17.1888L125.022 20.5183C125.178 20.6221 125.362 20.6755 125.55 20.6714C125.737 20.6673 125.919 20.6058 126.071 20.4953C126.222 20.3849 126.336 20.2306 126.398 20.0534C126.459 19.8761 126.464 19.6844 126.413 19.5039L124.736 13.6336L128.896 9.88944C129.03 9.76946 129.125 9.61304 129.17 9.43955C129.215 9.26605 129.209 9.08308 129.151 8.91327C129.094 8.74345 128.988 8.59424 128.846 8.48408C128.705 8.37392 128.534 8.30764 128.355 8.29345L123.126 7.87703L120.863 2.86801C120.791 2.70672 120.674 2.56976 120.525 2.47366C120.377 2.37755 120.204 2.32642 120.028 2.32642C119.851 2.32642 119.678 2.37755 119.53 2.47366C119.381 2.56976 119.264 2.70672 119.192 2.86801L116.929 7.87703L111.7 8.29254C111.524 8.30645 111.356 8.37069 111.216 8.47757C111.076 8.58445 110.97 8.72943 110.91 8.89518C110.85 9.06094 110.839 9.24044 110.878 9.41221C110.918 9.58398 111.006 9.74074 111.132 9.86376L114.997 13.6308ZM117.614 9.66288C117.778 9.64998 117.935 9.59328 118.07 9.49871C118.204 9.40414 118.31 9.27519 118.377 9.12538L120.028 5.47387L121.678 9.12538C121.745 9.27519 121.851 9.40414 121.986 9.49871C122.12 9.59328 122.277 9.64998 122.441 9.66288L126.084 9.95181L123.084 12.6521C122.823 12.887 122.72 13.2484 122.815 13.5859L123.964 17.608L120.538 15.3231C120.387 15.2222 120.21 15.1683 120.029 15.1683C119.848 15.1683 119.671 15.2222 119.52 15.3231L115.939 17.7107L116.903 13.5409C116.938 13.3876 116.933 13.2277 116.889 13.0767C116.844 12.9257 116.762 12.7887 116.649 12.6787L113.863 9.9619L117.614 9.66288Z" fill="#F3CD03"/>
</g>
<defs>
<clipPath id="clip0_1_39">
<rect width="130.068" height="22.0136" fill="white" transform="translate(0.96582 0.493195)"/>
</clipPath>
</defs>
</svg>
