<svg width="93" height="94" viewBox="0 0 93 94" fill="none" xmlns="http://www.w3.org/2000/svg">
<path d="M0 46.8C0 21.2292 20.7292 0.5 46.3 0.5C71.8708 0.5 92.6 21.2292 92.6 46.8C92.6 72.3708 71.8708 93.1 46.3 93.1C20.7292 93.1 0 72.3708 0 46.8Z" fill="#23A6F0"/>
<g clip-path="url(#clip0_1_82)">
<path d="M54.5396 48.2031L39.4282 57.2267C38.1458 57.9917 36.5 57.0654 36.5 55.5232V37.4759C36.5 35.9361 38.1434 35.0074 39.4282 35.7748L54.5396 44.7985C54.8313 44.9698 55.0738 45.2176 55.2425 45.5166C55.4112 45.8155 55.5 46.1551 55.5 46.5008C55.5 46.8465 55.4112 47.186 55.2425 47.485C55.0738 47.784 54.8313 48.0317 54.5396 48.2031Z" fill="white"/>
</g>
<defs>
<clipPath id="clip0_1_82">
<rect width="19" height="23" fill="white" transform="translate(36.8 35.3)"/>
</clipPath>
</defs>
</svg>
